<svg xmlns="http://www.w3.org/2000/svg" fill="none" viewBox="0.77 0.77 52.46 52.46">                 <path d="M4.25 27.115H49.75C51.6054 27.115 53.115 25.6053 53.115 23.75V15.0833C53.115 13.228 51.6054 11.7183 49.75 11.7183H4.25C2.39465 11.7183 0.885 13.228 0.885 15.0833V23.75C0.885 25.6053 2.39465 27.115 4.25 27.115ZM3.28167 15.0833C3.28167 14.549 3.71753 14.115 4.25 14.115H49.75C50.2825 14.115 50.7183 14.549 50.7183 15.0833V23.75C50.7183 24.2843 50.2825 24.7183 49.75 24.7183H4.25C3.71753 24.7183 3.28167 24.2843 3.28167 23.75V15.0833Z" fill="#d9232e" stroke="#d9232e" stroke-width="0.23"/>                 <path d="M10.75 53.115H43.25C46.3014 53.115 48.7817 50.6325 48.7817 47.5833V25.9166C48.7817 25.2551 48.2449 24.7183 47.5834 24.7183C46.9219 24.7183 46.385 25.2551 46.385 25.9166V47.5833C46.385 49.3117 44.9784 50.7183 43.25 50.7183H10.75C9.02172 50.7183 7.61504 49.3117 7.61504 47.5833V25.9166C7.61504 25.2551 7.07822 24.7183 6.41671 24.7183C5.75519 24.7183 5.21837 25.2551 5.21837 25.9166V47.5833C5.21837 50.6325 7.69866 53.115 10.75 53.115Z" fill="#d9232e" stroke="#d9232e" stroke-width="0.23"/>                 <path d="M25.8016 51.9167C25.8016 52.5782 26.3384 53.115 27 53.115C27.6615 53.115 28.1983 52.5782 28.1983 51.9167V25.9166C28.1983 25.2551 27.6615 24.7183 27 24.7183C26.3384 24.7183 25.8016 25.2551 25.8016 25.9166V51.9167Z" fill="#d9232e" stroke="#d9232e" stroke-width="0.23"/>                 <path d="M28.1696 12.6578L28.1696 12.6578C28.0177 11.973 27.5407 9.90067 26.8731 7.77058C26.5392 6.70565 26.1571 5.6241 25.7432 4.69337C25.3308 3.76578 24.8816 2.97595 24.4098 2.50466C22.2545 0.347258 18.7454 0.347348 16.5881 2.50471C15.5438 3.54896 14.9684 4.93888 14.9684 6.41669C14.9684 7.89449 15.5438 9.28452 16.5904 10.3267C17.0622 10.7984 17.8522 11.2475 18.7798 11.6599C19.7106 12.0738 20.792 12.4559 21.8566 12.7897C23.9862 13.4574 26.0574 13.9343 26.7411 14.0863C26.8271 14.1054 26.9134 14.115 27 14.115C27.3139 14.115 27.6206 13.9906 27.8462 13.7628C28.1362 13.4749 28.2583 13.0579 28.1696 12.6578ZM22.7151 4.20106L22.7154 4.20134C22.9113 4.3973 23.1334 4.76019 23.3695 5.25376C23.604 5.74404 23.8472 6.35215 24.0886 7.02869C24.5509 8.32441 25.0043 9.86452 25.3754 11.2943C23.9457 10.9242 22.4056 10.4708 21.1099 10.0082C20.4334 9.76671 19.8253 9.52331 19.335 9.28864C18.8414 9.0524 18.4785 8.83018 18.2825 8.63421C17.6908 8.04036 17.365 7.2549 17.365 6.41669C17.365 5.57844 17.6909 4.79296 18.2826 4.1991C18.8927 3.58908 19.6971 3.28386 20.5 3.28386C21.303 3.28386 22.1073 3.5891 22.7151 4.20106Z" fill="#d9232e" stroke="#d9232e" stroke-width="0.23"/>                 <path d="M26.1521 13.7654L26.1516 13.765C25.8619 13.4752 25.7394 13.0582 25.8282 12.6598C25.9802 11.9749 26.4571 9.90323 27.1248 7.77353C27.4586 6.70873 27.8407 5.62726 28.2546 4.69642C28.6671 3.76875 29.1161 2.9787 29.5879 2.50688C29.5879 2.50687 29.588 2.50686 29.588 2.50684L29.6693 2.58816C31.7818 0.473493 35.2181 0.477826 37.3285 2.58816L26.1521 13.7654ZM26.1521 13.7654C26.3795 13.9904 26.6859 14.115 27 14.115C27.0865 14.115 27.1718 14.1054 27.2575 14.0892L27.2575 14.0892L27.2611 14.0884C27.9448 13.9365 30.016 13.4595 32.1455 12.7919C33.2102 12.458 34.2916 12.0759 35.2224 11.662C36.1501 11.2495 36.9401 10.8005 37.4119 10.3286C38.4562 9.28439 39.0316 7.89447 39.0316 6.41666C39.0316 4.93894 38.4563 3.54899 37.4098 2.50684L26.1521 13.7654ZM35.7155 8.63187L35.7153 8.63201C35.5193 8.82798 35.1564 9.05021 34.6629 9.28644C34.1726 9.52111 33.5645 9.76451 32.8879 10.006C31.5922 10.4686 30.0522 10.922 28.6224 11.2921C28.9935 9.86233 29.4469 8.32222 29.9092 7.02649C30.1506 6.34996 30.3938 5.74184 30.6283 5.25156C30.8644 4.75799 31.0865 4.3951 31.2824 4.19914C31.8925 3.58907 32.697 3.28383 33.5 3.28383C34.3029 3.28383 35.1073 3.58902 35.7173 4.199C36.3091 4.79287 36.635 5.57838 36.635 6.41666C36.635 7.25495 36.3091 8.0403 35.7155 8.63187Z" fill="#d9232e" stroke="#d9232e" stroke-width="0.23"/>               </svg>