<svg xmlns="http://www.w3.org/2000/svg" fill="none" viewBox="0 2.13 52 47.67">                 <path d="M23.8327 49.7994C10.6923 49.7994 -7.62939e-06 39.1075 -7.62939e-06 25.9671C-7.62939e-06 12.8266 10.6923 2.13434 23.8327 2.13434C28.4021 2.13434 32.8477 3.43636 36.6891 5.90195C37.4433 6.38753 37.6642 7.39281 37.1786 8.14895C36.6915 8.90509 35.6882 9.12368 34.932 8.6385C31.6171 6.50853 27.7781 5.38424 23.8327 5.38424C12.4839 5.38424 3.24989 14.6182 3.24989 25.9671C3.24989 37.3155 12.4839 46.5495 23.8327 46.5495C35.1812 46.5495 44.4151 37.3155 44.4151 25.9671C44.4151 25.2887 44.3826 24.617 44.3199 23.9565C44.2334 23.0615 44.8876 22.2685 45.7802 22.182C46.6772 22.0995 47.4679 22.7497 47.5548 23.6423C47.6281 24.4072 47.665 25.1827 47.665 25.9671C47.665 39.1075 36.9731 49.7994 23.8327 49.7994Z" fill="#d9232e"/>                 <path d="M26.5407 31.3835C26.1249 31.3835 25.7088 31.2252 25.3926 30.907L15.6429 21.1573C15.0082 20.5222 15.0082 19.4931 15.6429 18.8583C16.2777 18.2236 17.3067 18.2236 17.9415 18.8583L26.5431 27.4599L49.2249 4.7777C49.8601 4.14295 50.8892 4.14295 51.5239 4.7777C52.1586 5.41244 52.1586 6.44152 51.5239 7.07627L27.6912 30.909C27.3726 31.2252 26.9569 31.3835 26.5407 31.3835Z" fill="#d9232e"/>               </svg>