<?xml version="1.0" encoding="utf-8"?>
<!-- Generator: Adobe Illustrator 27.5.0, SVG Export Plug-In . SVG Version: 6.00 Build 0)  -->
<svg version="1.1" id="Layer_1" xmlns="http://www.w3.org/2000/svg" xmlns:xlink="http://www.w3.org/1999/xlink" x="0px" y="0px"
	 viewBox="0 0 21.5 21.5" style="enable-background:new 0 0 21.5 21.5;" xml:space="preserve">
<style type="text/css">
	.st0{fill:#D9232E;}
	.st1{fill:#FFFFFF;}
</style>
<circle class="st0" cx="10.75" cy="10.75" r="10.75"/>
<g>
	<path class="st1" d="M15.19434,15.5c-0.41406,0-0.75-0.33594-0.75-0.75V8.9502c0-0.41406,0.33594-0.75,0.75-0.75
		s0.75,0.33594,0.75,0.75V14.75C15.94434,15.16406,15.6084,15.5,15.19434,15.5z"/>
	<path class="st1" d="M10.74951,15.5c-0.41406,0-0.75-0.33594-0.75-0.75v-8c0-0.41406,0.33594-0.75,0.75-0.75
		s0.75,0.33594,0.75,0.75v8C11.49951,15.16406,11.16357,15.5,10.74951,15.5z"/>
	<path class="st1" d="M6.30518,15.5c-0.41406,0-0.75-0.33594-0.75-0.75v-8c0-0.41406,0.33594-0.75,0.75-0.75s0.75,0.33594,0.75,0.75
		v8C7.05518,15.16406,6.71924,15.5,6.30518,15.5z"/>
</g>
</svg>
