<svg xmlns="http://www.w3.org/2000/svg" fill="none" viewBox="0 2.16 52 47.67">                 <path d="M50.9167 32.5C50.3187 32.5 49.8333 32.0146 49.8333 31.4166C49.8333 24.8451 44.4882 19.5 37.9167 19.5H20.5833V27.0833C20.5833 27.521 20.319 27.9175 19.9138 28.0843C19.5108 28.2576 19.045 28.1623 18.733 27.8503L6.81633 15.9336C6.39383 15.5111 6.39383 14.8243 6.81633 14.4018L18.733 2.48514C19.045 2.17314 19.5087 2.07781 19.9138 2.24898C20.319 2.41581 20.5833 2.81231 20.5833 3.24998V10.8333H35.75C44.7113 10.8333 52 18.122 52 27.0833V31.4166C52 32.0146 51.5147 32.5 50.9167 32.5ZM9.11516 15.1666L18.4167 24.4681V18.4166C18.4167 17.8186 18.902 17.3333 19.5 17.3333H37.9167C42.5577 17.3333 46.6808 19.591 49.2483 23.0641C47.515 17.251 42.1178 13 35.75 13H19.5C18.902 13 18.4167 12.5146 18.4167 11.9166V5.86514L9.11516 15.1666Z" fill="#d9232e"/>                 <path d="M32.5 49.8333C32.3613 49.8333 32.2205 49.8073 32.0862 49.751C31.681 49.5842 31.4167 49.1877 31.4167 48.75V41.1667H16.25C7.28867 41.1667 0 33.878 0 24.9167V20.5833C0 19.9853 0.485333 19.5 1.08333 19.5C1.68133 19.5 2.16667 19.9853 2.16667 20.5833C2.16667 27.1548 7.51183 32.5 14.0833 32.5H31.4167V24.9167C31.4167 24.479 31.681 24.0825 32.0862 23.9157C32.4935 23.7488 32.9572 23.8398 33.267 24.1497L45.1837 36.0663C45.6062 36.4888 45.6062 37.1757 45.1837 37.5982L33.267 49.5148C33.059 49.7228 32.7817 49.8333 32.5 49.8333ZM2.75167 28.9358C4.485 34.749 9.88217 39 16.25 39H32.5C33.098 39 33.5833 39.4853 33.5833 40.0833V46.1348L42.8848 36.8333L33.5833 27.5318V33.5833C33.5833 34.1813 33.098 34.6667 32.5 34.6667H14.0833C9.44233 34.6667 5.31917 32.409 2.75167 28.9358Z" fill="#d9232e"/>               </svg>