<svg xmlns="http://www.w3.org/2000/svg" fill="none" viewBox="0 1.2 52 49.6">                 <path d="M44.4166 13.9682H7.58337C3.40163 13.9682 0 17.3698 0 21.5515V43.2181C0 47.3997 3.40163 50.8015 7.58337 50.8015H44.4167C48.5984 50.8015 52.0001 47.3998 52.0001 43.2181V21.5515C52 17.3698 48.5984 13.9682 44.4166 13.9682ZM49.8334 43.2182C49.8334 46.2038 47.4045 48.6348 44.4167 48.6348H7.58337C4.5955 48.6348 2.16673 46.2038 2.16673 43.2182V21.5515C2.16673 18.5658 4.5956 16.1348 7.58337 16.1348H44.4167C47.4046 16.1348 49.8334 18.5658 49.8334 21.5515V43.2182Z" fill="#d9232e"/>                 <path d="M42.25 29.1348C40.4581 29.1348 39 30.593 39 32.3848C39 34.1767 40.4581 35.6348 42.25 35.6348C44.0419 35.6348 45.5 34.1767 45.5 32.3848C45.5 30.593 44.0419 29.1348 42.25 29.1348ZM42.25 33.4682C41.6541 33.4682 41.1666 32.9828 41.1666 32.3848C41.1666 31.7868 41.6541 31.3015 42.25 31.3015C42.8459 31.3015 43.3334 31.7868 43.3334 32.3848C43.3334 32.9828 42.8459 33.4682 42.25 33.4682Z" fill="#d9232e"/>                 <path d="M50.9166 24.8015H42.25C38.0684 24.8015 34.6666 28.2031 34.6666 32.3848C34.6666 36.5665 38.0683 39.9682 42.25 39.9682H50.9166C51.5146 39.9682 52 39.4828 52 38.8848V25.8848C52 25.2868 51.5146 24.8015 50.9166 24.8015ZM49.8334 37.8015H42.25C39.2621 37.8015 36.8334 35.3705 36.8334 32.3848C36.8334 29.3992 39.2622 26.9682 42.25 26.9682H49.8334V37.8015Z" fill="#d9232e"/>                 <path d="M44.3019 14.5662L39.715 5.39243C38.7899 3.54207 37.193 2.1793 35.2214 1.5553C33.2498 0.933434 31.161 1.12843 29.3368 2.1078L7.06988 14.0982C6.54338 14.3798 6.34625 15.0385 6.63002 15.565C6.91388 16.0915 7.57252 16.2887 8.09688 16.0049L30.368 4.0188C31.668 3.3168 33.1651 3.17593 34.5691 3.6223C35.9775 4.06643 37.1171 5.04143 37.778 6.36317L42.3649 15.5368C42.5555 15.9159 42.9369 16.1348 43.3334 16.1348C43.4959 16.1348 43.6605 16.0979 43.8165 16.0199C44.3517 15.7513 44.5684 15.1013 44.3019 14.5662Z" fill="#d9232e"/>                 <path d="M39.9555 5.87344C39.6695 5.34481 39.0109 5.14981 38.4865 5.43144L22.3904 14.0981C21.8639 14.3819 21.6667 15.0384 21.9505 15.5649C22.1455 15.9289 22.5181 16.1348 22.9039 16.1348C23.0772 16.1348 23.2549 16.0937 23.4195 16.0069L39.5156 7.34031C40.0421 7.05644 40.2394 6.39994 39.9555 5.87344Z" fill="#d9232e"/>                 <path d="M19.5 7.4682H11.9166C5.34737 7.4682 0 12.8133 0 19.3848V21.5515C0 22.1495 0.485367 22.6348 1.08337 22.6348C1.68137 22.6348 2.16673 22.1495 2.16673 21.5515V19.3848C2.16673 14.0093 6.54123 9.63483 11.9167 9.63483H19.5C20.098 9.63483 20.5834 9.14947 20.5834 8.55147C20.5834 7.95347 20.098 7.4682 19.5 7.4682Z" fill="#d9232e"/>                 <path d="M40.0834 7.4682C39.4854 7.4682 39 7.95357 39 8.55157C39 9.14957 39.4854 9.63494 40.0834 9.63494C45.4589 9.63494 49.8334 14.0094 49.8334 19.3849V21.5516C49.8334 22.1496 50.3187 22.6349 50.9167 22.6349C51.5147 22.6349 52.0001 22.1496 52.0001 21.5516V19.3849C52 12.8133 46.6526 7.4682 40.0834 7.4682Z" fill="#d9232e"/>               </svg>